<svg width="352" height="245" viewBox="0 0 352 245" fill="none" xmlns="http://www.w3.org/2000/svg">
<path d="M175.871 153.782C176.683 150.643 181.079 134.782 196.984 125.726C199.561 124.254 215.55 115.504 232.352 122.087C235.292 123.226 242.264 126.087 247.333 133.365C255.65 145.393 251.673 159.282 251.001 161.393C249.265 147.643 239.632 137.032 228.179 135.17C212.778 132.67 201.577 147.143 197.545 155.921C190.376 171.504 195.892 190.615 207.877 201.282C226.219 217.587 256.938 211.615 270.603 195.309C280.068 184.032 279.536 169.948 279.256 162.754C278.052 130.92 252.681 108.643 245.905 102.643C234.228 92.3649 229.971 93.1149 214.178 78.5038C197.881 63.4483 193.96 54.8649 193.092 46.8927C192.112 38.0038 195.22 30.976 196.424 28.2816C197.573 25.6983 204.349 11.3649 220.423 6.44826C234.004 2.30938 252.177 5.47604 261.418 18.7816C268.447 28.8927 267.103 40.226 266.571 43.6427C271.107 55.0038 281.468 61.7538 291.269 60.5594C298.017 59.7538 306.418 54.9483 308.07 46.7538C309.442 39.9205 306.25 30.4205 299.418 29.0872C294.993 28.226 289.057 30.7538 287.124 36.0594C285.724 39.9483 286.788 44.4483 289.897 47.6427C283.904 47.3649 279.06 43.0316 278.248 37.5872C277.576 33.0038 279.9 28.2816 284.128 25.7538C285.528 24.6427 290.261 21.2538 297.093 21.3649C301.91 21.4483 305.466 23.2538 307.118 24.2538C306.39 23.2816 302.89 18.4205 304.066 12.2538C305.41 5.14271 312.411 -0.162847 319.607 0.00382016C320.279 0.00382016 327.7 0.309375 331.34 6.2816C334.673 11.7816 333.357 19.726 327.588 25.0594C330.304 19.5594 329.828 13.5872 326.468 9.89271C325.992 9.36493 322.436 5.64271 317.731 6.5316C313.699 7.30938 311.123 11.0316 310.619 14.3094C310.199 16.976 311.263 19.1149 312.887 22.3372C314.623 25.8094 315.799 26.3094 318.207 30.6427C319.019 32.0872 320.055 33.9205 320.923 36.3372C323.136 42.5038 322.688 47.8649 322.548 49.0872C322.548 49.0872 321.932 55.1149 319.019 60.1427C312.271 71.7816 292.109 78.4483 276.4 71.5316C267.803 67.7538 263.042 61.0316 260.97 57.5872C259.626 59.2816 256.406 62.8649 250.945 64.8649C249.153 65.5316 244.701 67.0872 239.52 65.9205C230.139 63.7816 226.163 54.3094 225.715 53.226C226.835 54.1149 230.531 56.7538 235.88 56.6983C236.86 56.6983 243.301 56.5594 247.809 51.3372C253.325 44.9483 250.889 36.6705 250.693 36.0316C248.061 27.6427 238.512 22.3649 229.999 23.726C219.947 25.3372 215.578 35.5316 215.326 36.1705C210.258 48.5594 218.658 64.1983 228.627 71.2538C234.984 75.7538 246.577 79.976 246.577 79.976C255.65 84.0038 270.603 92.1705 283.456 107.865C287.713 113.087 302.918 132.754 304.654 158.476C305.326 168.504 303.786 176.948 303.534 178.393C301.854 187.365 298.858 194.448 296.393 199.309C305.578 189.254 319.551 185.532 331.592 189.865C341.141 193.309 349.85 201.976 351.474 213.476C351.698 215.087 353.182 227.032 344.698 236.004C335.961 245.226 319.439 248.309 310.703 240.615C306.222 236.671 302.162 228.42 305.69 221.337C309.078 214.504 317.255 213.143 318.235 213.004C313.195 219.309 313.363 227.198 317.115 230.809C321.792 235.282 331.424 232.393 336.045 226.698C340.609 221.115 340.301 212.948 336.409 207.67C332.068 201.754 324.452 201.365 322.492 201.337C314.819 201.226 309.414 205.67 298.045 215.643C275.587 235.365 277.128 235.726 272.955 237.782C255.23 246.532 238.652 244.309 229.803 243.004C201.437 238.809 183.319 221.309 176.879 214.393C176.739 204.17 176.599 193.782 176.431 183.532C176.291 173.837 176.123 163.476 175.983 153.782H175.871Z" fill="#8868B1" fill-opacity="0.33"/>
<path d="M175.871 153.782C175.059 150.643 170.662 134.782 154.757 125.726C152.18 124.254 136.191 115.504 119.39 122.087C116.449 123.226 109.477 126.087 104.408 133.365C96.0915 145.393 100.068 159.282 100.74 161.393C102.476 147.643 112.109 137.032 123.562 135.17C138.963 132.67 150.164 147.143 154.197 155.921C161.365 171.504 155.849 190.615 143.864 201.282C125.522 217.587 94.8034 211.615 81.1382 195.309C71.6733 184.032 72.2054 169.948 72.4854 162.754C73.6895 130.92 99.0598 108.643 105.836 102.643C117.513 92.3649 121.77 93.1149 137.563 78.5038C153.861 63.4483 157.781 54.8649 158.649 46.8927C159.629 38.0038 156.521 30.976 155.317 28.2816C154.169 25.6983 147.392 11.3649 131.319 6.44826C117.737 2.30938 99.5638 5.47604 90.323 18.7816C83.2944 28.8927 84.6385 40.226 85.1705 43.6427C80.6341 55.0038 70.2732 61.7538 60.4723 60.5594C53.7237 59.7538 45.323 54.9483 43.6709 46.7538C42.2987 39.9205 45.491 30.4205 52.3236 29.0872C56.748 28.226 62.6845 30.7538 64.6167 36.0594C66.0168 39.9483 64.9527 44.4483 61.8445 47.6427C67.837 47.3649 72.6814 43.0316 73.4935 37.5872C74.1656 33.0038 71.8414 28.2816 67.613 25.7538C66.2129 24.6427 61.4804 21.2538 54.6478 21.3649C49.8314 21.4483 46.2751 23.2538 44.6229 24.2538C45.351 23.2816 48.8513 18.4205 47.6752 12.2538C46.3031 5.14271 39.3025 -0.162847 32.1058 0.00382016C31.4338 0.00382016 24.0131 0.309375 20.3728 6.2816C17.0405 11.7816 18.3566 19.726 24.1251 25.0594C21.4089 19.5594 21.8849 13.5872 25.2452 9.89271C25.7213 9.36493 29.2776 5.64271 33.982 6.5316C38.0144 7.30938 40.5906 11.0316 41.0946 14.3094C41.5147 16.976 40.4506 19.1149 38.8264 22.3372C37.0903 25.8094 35.9142 26.3094 33.506 30.6427C32.6939 32.0872 31.6578 33.9205 30.7897 36.3372C28.5775 42.5038 29.0256 47.8649 29.1656 49.0872C29.1656 49.0872 29.7816 55.1149 32.6939 60.1427C39.4425 71.7816 59.6043 78.4483 75.3137 71.5316C83.9104 67.7538 88.6708 61.0316 90.743 57.5872C92.0871 59.2816 95.3074 62.8649 100.768 64.8649C102.56 65.5316 107.012 67.0872 112.193 65.9205C121.574 63.7816 125.55 54.3094 125.998 53.226C124.878 54.1149 121.182 56.7538 115.833 56.6983C114.853 56.6983 108.413 56.5594 103.904 51.3372C98.3877 44.9483 100.824 36.6705 101.02 36.0316C103.652 27.6427 113.201 22.3649 121.714 23.726C131.767 25.3372 136.135 35.5316 136.387 36.1705C141.456 48.5594 133.055 64.1983 123.086 71.2538C116.729 75.7538 105.136 79.976 105.136 79.976C96.0635 84.0038 81.1102 92.1705 68.257 107.865C64.0007 113.087 48.7953 132.754 47.0592 158.476C46.3871 168.504 47.9272 176.948 48.1793 178.393C49.8594 187.365 52.8557 194.448 55.3199 199.309C46.1351 189.254 32.1618 185.532 20.1208 189.865C10.5719 193.309 1.86314 201.976 0.239001 213.476C0.014981 215.087 -1.46915 227.032 7.0156 236.004C15.7524 245.226 32.2738 248.309 41.0106 240.615C45.491 236.671 49.5514 228.42 46.0231 221.337C42.6348 214.504 34.458 213.143 33.4779 213.004C38.5184 219.309 38.3504 227.198 34.5981 230.809C29.9216 235.282 20.2888 232.393 15.6684 226.698C11.104 221.115 11.412 212.948 15.3043 207.67C19.6447 201.754 27.2614 201.365 29.2216 201.337C36.8943 201.226 42.2987 205.67 53.6677 215.643C76.1257 235.365 74.5856 235.726 78.758 237.782C81.0542 238.92 99.1438 246.393 121.91 243.004C150.248 238.809 170.69 220.115 176.627 214.393C178.419 205.782 179.903 194.587 179.483 181.532C179.119 170.698 177.551 161.309 175.759 153.754L175.871 153.782Z" fill="#8868B1" fill-opacity="0.33"/>
<path d="M175.871 67.5596L157.501 93.1151C163.858 102.087 170.215 111.032 176.571 120.004C182.368 111.143 188.164 102.31 193.961 93.4485C187.94 84.8096 181.92 76.1985 175.871 67.5596Z" fill="#8868B1" fill-opacity="0.33"/>
</svg>
