<svg width="501" height="492" viewBox="0 0 501 492" fill="none" xmlns="http://www.w3.org/2000/svg">
<g filter="url(#filter0_i_262_22)">
<rect y="0.241211" width="501" height="490.838" rx="97" fill="black"/>
<mask id="mask0_262_22" style="mask-type:alpha" maskUnits="userSpaceOnUse" x="0" y="0" width="501" height="492">
<rect y="0.241211" width="501" height="490.838" rx="97" fill="#F3EFD4"/>
</mask>
<g mask="url(#mask0_262_22)">
<path d="M198.842 238.26C208.179 215.102 199.986 191.852 194.722 183.122C210.102 152.245 150.782 139.471 119.201 136.944C85.1471 133.084 63.7103 151.084 51.231 167.959C51.231 167.959 31.3865 198.298 30.5129 225.694C29.6393 253.09 51.231 276.114 51.231 276.114C68.7672 311.826 65.5072 331.001 47.1116 364.388L121.516 381.326C120.418 350.449 147.121 327.399 152.156 325.791C195.546 347.846 201.359 327.629 198.842 314.764C209.827 310.353 207.538 301.898 205.021 298.222C214.907 295.465 210.971 285.127 207.767 280.303C218.203 278.097 219.896 271.572 219.439 268.586C202.961 256.455 198.842 243.314 198.842 238.26Z" fill="#FF962D" stroke="white" stroke-width="11"/>
<path d="M287.553 217.205C310.196 129.688 389.494 130.426 426.312 141.735C443.433 150.598 454.386 167.815 457.723 175.316L465.317 173.931L471.53 182.586L456.342 190.548V196.088H462.21V205.781L452.545 209.589V226.899L445.987 231.399L439.429 264.288H435.977L439.429 288.521H443.916L454.616 312.409L387.805 378.278L368.323 307.562L334.496 332.142C327.04 335.742 322.415 333.642 321.034 332.142C313.855 298.076 302.625 284.944 297.908 282.636C285.205 268.234 285.712 233.015 287.553 217.205Z" fill="#7B7B7B" stroke="white" stroke-width="11"/>
<path d="M219.505 300.028L243.895 287.833" stroke="white" stroke-width="8"/>
<path d="M217.473 315.272L244.911 321.369" stroke="white" stroke-width="8"/>
<path d="M212.391 330.515L226.619 347.791" stroke="white" stroke-width="8"/>
<path d="M290.641 300.028L267.268 287.833" stroke="white" stroke-width="8"/>
<path d="M293.69 315.272L265.235 321.369" stroke="white" stroke-width="8"/>
<path d="M297.755 330.515L283.528 347.791" stroke="white" stroke-width="8"/>
</g>
</g>
<path d="M81.5463 62.3298C81.5956 62.2804 81.7436 62.2558 81.9903 62.2558H83.9883C84.827 62.2558 85.6163 62.4038 86.3563 62.6998C87.0963 62.9464 87.7376 63.2918 88.2803 63.7358C88.823 64.1798 89.2423 64.6978 89.5383 65.2898C89.8836 65.8324 90.0563 66.3751 90.0563 66.9178V99.4778H79.4003V76.1678C75.2563 80.1638 71.655 83.6171 68.5963 86.5278C65.587 89.3891 62.997 91.7571 60.8263 93.6318C58.705 95.5064 56.9536 96.9124 55.5723 97.8498C54.2403 98.7871 53.1796 99.3051 52.3903 99.4038C52.341 99.4531 52.2176 99.4778 52.0203 99.4778H49.9483C49.159 99.4778 48.3943 99.3544 47.6543 99.1078C46.9143 98.8118 46.273 98.4418 45.7303 97.9978C45.1876 97.5538 44.7436 97.0604 44.3983 96.5178C44.1023 95.9751 43.9543 95.4078 43.9543 94.8158V62.2558H54.6103V85.4918C58.9023 81.4464 62.553 77.9931 65.5623 75.1318C68.621 72.2211 71.1863 69.8531 73.2583 68.0278C75.3303 66.1531 77.0076 64.7718 78.2903 63.8838C79.6223 62.9464 80.7076 62.4284 81.5463 62.3298ZM105.413 99.4778H94.757V66.9178C94.757 66.3751 94.905 65.8324 95.201 65.2898C95.5464 64.6978 95.9904 64.1798 96.533 63.7358C97.0757 63.2918 97.717 62.9464 98.457 62.6998C99.197 62.4038 99.9864 62.2558 100.825 62.2558H103.711C105.043 62.4531 106.326 62.9464 107.559 63.7358C108.842 64.5251 109.853 65.5364 110.593 66.7698L122.433 86.3058L134.273 66.7698C135.013 65.5364 136 64.5251 137.233 63.7358C138.516 62.9464 139.823 62.4531 141.155 62.2558H144.041C144.88 62.2558 145.669 62.4038 146.409 62.6998C147.149 62.9464 147.79 63.2918 148.333 63.7358C148.876 64.1798 149.295 64.6978 149.591 65.2898C149.936 65.8324 150.109 66.3751 150.109 66.9178V99.4778H139.453V78.6838C137.085 82.8771 134.84 86.5278 132.719 89.6358C130.647 92.6944 129.093 94.9391 128.057 96.3698C127.07 97.7511 126.133 98.6144 125.245 98.9598C124.406 99.3051 123.74 99.4778 123.247 99.4778H121.619C120.83 99.4778 120.065 99.3051 119.325 98.9598C118.634 98.6144 117.796 97.7511 116.809 96.3698C115.773 94.9391 114.194 92.6944 112.073 89.6358C110.001 86.5278 107.781 82.8771 105.413 78.6838V99.4778ZM192.402 62.3298C192.451 62.2804 192.599 62.2558 192.846 62.2558H194.844C195.682 62.2558 196.472 62.4038 197.212 62.6998C197.952 62.9464 198.593 63.2918 199.136 63.7358C199.678 64.1798 200.098 64.6978 200.394 65.2898C200.739 65.8324 200.912 66.3751 200.912 66.9178V99.4778H190.256V76.1678C186.112 80.1638 182.51 83.6171 179.452 86.5278C176.442 89.3891 173.852 91.7571 171.682 93.6318C169.56 95.5064 167.809 96.9124 166.428 97.8498C165.096 98.7871 164.035 99.3051 163.246 99.4038C163.196 99.4531 163.073 99.4778 162.876 99.4778H160.804C160.014 99.4778 159.25 99.3544 158.51 99.1078C157.77 98.8118 157.128 98.4418 156.586 97.9978C156.043 97.5538 155.599 97.0604 155.254 96.5178C154.958 95.9751 154.81 95.4078 154.81 94.8158V62.2558H165.466V85.4918C169.758 81.4464 173.408 77.9931 176.418 75.1318C179.476 72.2211 182.042 69.8531 184.114 68.0278C186.186 66.1531 187.863 64.7718 189.146 63.8838C190.478 62.9464 191.563 62.4284 192.402 62.3298ZM205.612 72.2458V62.2558H250.308V72.2458H233.288V99.4778H222.632V72.2458H205.612ZM268.51 93.2618L265.55 99.4778H253.71L268.954 67.5838C270.632 64.0318 273.172 62.2558 276.576 62.2558H281.312C282.99 62.2558 284.322 62.6998 285.308 63.5878C286.344 64.4758 287.282 65.8078 288.12 67.5838L303.364 99.4778H291.524L288.564 93.2618H268.51ZM284.346 84.3818L278.574 73.6518L272.876 84.3818H284.346ZM349.408 107.248V99.4778H312.704C312.014 99.4778 311.298 99.3051 310.558 98.9598C309.868 98.6144 309.226 98.1704 308.634 97.6278C308.092 97.0358 307.648 96.3944 307.302 95.7038C306.957 94.9638 306.784 94.2238 306.784 93.4838V62.2558H317.44V89.4878H342.082V62.2558H352.738V89.5618H358.51V107.248H349.408ZM401.683 62.3298C401.732 62.2804 401.88 62.2558 402.127 62.2558H404.125C404.964 62.2558 405.753 62.4038 406.493 62.6998C407.233 62.9464 407.874 63.2918 408.417 63.7358C408.96 64.1798 409.379 64.6978 409.675 65.2898C410.02 65.8324 410.193 66.3751 410.193 66.9178V99.4778H399.537V76.1678C395.393 80.1638 391.792 83.6171 388.733 86.5278C385.724 89.3891 383.134 91.7571 380.963 93.6318C378.842 95.5064 377.09 96.9124 375.709 97.8498C374.377 98.7871 373.316 99.3051 372.527 99.4038C372.478 99.4531 372.354 99.4778 372.157 99.4778H370.085C369.296 99.4778 368.531 99.3544 367.791 99.1078C367.051 98.8118 366.41 98.4418 365.867 97.9978C365.324 97.5538 364.88 97.0604 364.535 96.5178C364.239 95.9751 364.091 95.4078 364.091 94.8158V62.2558H374.747V85.4918C379.039 81.4464 382.69 77.9931 385.699 75.1318C388.758 72.2211 391.323 69.8531 393.395 68.0278C395.467 66.1531 397.144 64.7718 398.427 63.8838C399.759 62.9464 400.844 62.4284 401.683 62.3298ZM425.476 99.4038H413.118L423.256 85.4178H420.222C419.531 85.4178 418.816 85.2451 418.076 84.8998C417.385 84.5544 416.744 84.1104 416.152 83.5678C415.609 82.9758 415.165 82.3344 414.82 81.6438C414.475 80.9038 414.302 80.1638 414.302 79.4238V68.2498C414.302 67.5098 414.475 66.7944 414.82 66.1038C415.165 65.3638 415.609 64.7224 416.152 64.1798C416.744 63.5878 417.385 63.1191 418.076 62.7738C418.816 62.4284 419.531 62.2558 420.222 62.2558H457.518V72.2458H424.958V76.3158H457.518V99.4778H446.862V85.4178H435.984L425.476 99.4038Z" fill="white"/>
<rect y="0.241211" width="501" height="490.838" rx="97" fill="#400093"/>
<mask id="mask1_262_22" style="mask-type:alpha" maskUnits="userSpaceOnUse" x="0" y="0" width="501" height="492">
<rect y="0.241211" width="501" height="490.838" rx="97" fill="#F3EFD4"/>
</mask>
<g mask="url(#mask1_262_22)">
<path d="M198.842 238.26C208.179 215.102 199.986 191.852 194.722 183.122C210.102 152.245 150.782 139.471 119.201 136.944C85.1471 133.084 63.7103 151.084 51.231 167.959C51.231 167.959 31.3865 198.298 30.5129 225.694C29.6393 253.09 51.231 276.114 51.231 276.114C68.7672 311.826 65.5072 331.001 47.1116 364.388L121.516 381.326C120.418 350.449 147.121 327.399 152.156 325.791C195.546 347.846 201.359 327.629 198.842 314.764C209.827 310.353 207.538 301.898 205.021 298.222C214.907 295.465 210.971 285.127 207.767 280.303C218.203 278.097 219.896 271.572 219.439 268.586C202.961 256.455 198.842 243.314 198.842 238.26Z" fill="#FF962D" stroke="white" stroke-width="11"/>
<path d="M287.553 217.205C310.196 129.688 389.494 130.426 426.312 141.735C443.433 150.598 454.386 167.815 457.723 175.316L465.317 173.931L471.53 182.586L456.342 190.548V196.088H462.21V205.781L452.545 209.589V226.899L445.987 231.399L439.429 264.288H435.977L439.429 288.521H443.916L454.616 312.409L387.805 378.278L368.323 307.562L334.496 332.142C327.04 335.742 322.415 333.642 321.034 332.142C313.855 298.076 302.625 284.944 297.908 282.636C285.205 268.234 285.712 233.015 287.553 217.205Z" fill="#7B7B7B" stroke="white" stroke-width="11"/>
<path d="M219.505 300.028L243.895 287.833" stroke="white" stroke-width="8"/>
<path d="M217.473 315.272L244.911 321.369" stroke="white" stroke-width="8"/>
<path d="M212.391 330.515L226.619 347.791" stroke="white" stroke-width="8"/>
<path d="M290.641 300.028L267.268 287.833" stroke="white" stroke-width="8"/>
<path d="M293.69 315.272L265.235 321.369" stroke="white" stroke-width="8"/>
<path d="M297.755 330.515L283.528 347.791" stroke="white" stroke-width="8"/>
</g>
<rect y="0.241211" width="501" height="490.838" rx="97" fill="#400093"/>
<mask id="mask2_262_22" style="mask-type:alpha" maskUnits="userSpaceOnUse" x="0" y="0" width="501" height="492">
<rect y="0.241211" width="501" height="490.838" rx="97" fill="#F3EFD4"/>
</mask>
<g mask="url(#mask2_262_22)">
<path d="M198.842 238.26C208.179 215.102 199.986 191.852 194.722 183.122C210.102 152.245 150.782 139.471 119.201 136.944C85.1471 133.084 63.7103 151.084 51.231 167.959C51.231 167.959 31.3865 198.298 30.5129 225.694C29.6393 253.09 51.231 276.114 51.231 276.114C68.7672 311.826 65.5072 331.001 47.1116 364.388L121.516 381.326C120.418 350.449 147.121 327.399 152.156 325.791C195.546 347.846 201.359 327.629 198.842 314.764C209.827 310.353 207.538 301.898 205.021 298.222C214.907 295.465 210.971 285.127 207.767 280.303C218.203 278.097 219.896 271.572 219.439 268.586C202.961 256.455 198.842 243.314 198.842 238.26Z" fill="#FF962D" stroke="white" stroke-width="11"/>
<path d="M287.553 217.205C310.196 129.688 389.494 130.426 426.312 141.735C443.433 150.598 454.386 167.815 457.723 175.316L465.317 173.931L471.53 182.586L456.342 190.548V196.088H462.21V205.781L452.545 209.589V226.899L445.987 231.399L439.429 264.288H435.977L439.429 288.521H443.916L454.616 312.409L387.805 378.278L368.323 307.562L334.496 332.142C327.04 335.742 322.415 333.642 321.034 332.142C313.855 298.076 302.625 284.944 297.908 282.636C285.205 268.234 285.712 233.015 287.553 217.205Z" fill="#7B7B7B" stroke="white" stroke-width="11"/>
<path d="M219.505 300.028L243.895 287.833" stroke="white" stroke-width="8"/>
<path d="M217.473 315.272L244.911 321.369" stroke="white" stroke-width="8"/>
<path d="M212.391 330.515L226.619 347.791" stroke="white" stroke-width="8"/>
<path d="M290.641 300.028L267.268 287.833" stroke="white" stroke-width="8"/>
<path d="M293.69 315.272L265.235 321.369" stroke="white" stroke-width="8"/>
<path d="M297.755 330.515L283.528 347.791" stroke="white" stroke-width="8"/>
</g>
<path d="M88.4165 61.8358C88.4639 61.7884 88.6059 61.7648 88.8425 61.7648H90.7595C91.5642 61.7648 92.3215 61.9068 93.0315 62.1908C93.7415 62.4274 94.3569 62.7588 94.8775 63.1848C95.3982 63.6108 95.8005 64.1078 96.0845 64.6758C96.4159 65.1964 96.5815 65.7171 96.5815 66.2378V97.4778H86.3575V75.1128C82.3815 78.9468 78.9262 82.2601 75.9915 85.0528C73.1042 87.7981 70.6192 90.0701 68.5365 91.8688C66.5012 93.6674 64.8209 95.0164 63.4955 95.9158C62.2175 96.8151 61.1999 97.3121 60.4425 97.4068C60.3952 97.4541 60.2769 97.4778 60.0875 97.4778H58.0995C57.3422 97.4778 56.6085 97.3594 55.8985 97.1228C55.1885 96.8388 54.5732 96.4838 54.0525 96.0578C53.5319 95.6318 53.1059 95.1584 52.7745 94.6378C52.4905 94.1171 52.3485 93.5728 52.3485 93.0048V61.7648H62.5725V84.0588C66.6905 80.1774 70.1932 76.8641 73.0805 74.1188C76.0152 71.3261 78.4765 69.0541 80.4645 67.3028C82.4525 65.5041 84.0619 64.1788 85.2925 63.3268C86.5705 62.4274 87.6119 61.9304 88.4165 61.8358ZM111.316 97.4778H101.092V66.2378C101.092 65.7171 101.234 65.1964 101.518 64.6758C101.849 64.1078 102.275 63.6108 102.796 63.1848C103.316 62.7588 103.932 62.4274 104.642 62.1908C105.352 61.9068 106.109 61.7648 106.914 61.7648H109.683C110.961 61.9541 112.191 62.4274 113.375 63.1848C114.605 63.9421 115.576 64.9124 116.286 66.0958L127.646 84.8398L139.006 66.0958C139.716 64.9124 140.662 63.9421 141.846 63.1848C143.076 62.4274 144.331 61.9541 145.609 61.7648H148.378C149.182 61.7648 149.94 61.9068 150.65 62.1908C151.36 62.4274 151.975 62.7588 152.496 63.1848C153.016 63.6108 153.419 64.1078 153.703 64.6758C154.034 65.1964 154.2 65.7171 154.2 66.2378V97.4778H143.976V77.5268C141.704 81.5501 139.55 85.0528 137.515 88.0348C135.527 90.9694 134.036 93.1231 133.042 94.4958C132.095 95.8211 131.196 96.6494 130.344 96.9808C129.539 97.3121 128.9 97.4778 128.427 97.4778H126.865C126.107 97.4778 125.374 97.3121 124.664 96.9808C124.001 96.6494 123.196 95.8211 122.25 94.4958C121.256 93.1231 119.741 90.9694 117.706 88.0348C115.718 85.0528 113.588 81.5501 111.316 77.5268V97.4778ZM194.778 61.8358C194.825 61.7884 194.967 61.7648 195.204 61.7648H197.121C197.926 61.7648 198.683 61.9068 199.393 62.1908C200.103 62.4274 200.718 62.7588 201.239 63.1848C201.76 63.6108 202.162 64.1078 202.446 64.6758C202.777 65.1964 202.943 65.7171 202.943 66.2378V97.4778H192.719V75.1128C188.743 78.9468 185.288 82.2601 182.353 85.0528C179.466 87.7981 176.981 90.0701 174.898 91.8688C172.863 93.6674 171.182 95.0164 169.857 95.9158C168.579 96.8151 167.561 97.3121 166.804 97.4068C166.757 97.4541 166.638 97.4778 166.449 97.4778H164.461C163.704 97.4778 162.97 97.3594 162.26 97.1228C161.55 96.8388 160.935 96.4838 160.414 96.0578C159.893 95.6318 159.467 95.1584 159.136 94.6378C158.852 94.1171 158.71 93.5728 158.71 93.0048V61.7648H168.934V84.0588C173.052 80.1774 176.555 76.8641 179.442 74.1188C182.377 71.3261 184.838 69.0541 186.826 67.3028C188.814 65.5041 190.423 64.1788 191.654 63.3268C192.932 62.4274 193.973 61.9304 194.778 61.8358ZM207.453 71.3498V61.7648H250.337V71.3498H234.007V97.4778H223.783V71.3498H207.453ZM267.801 91.5138L264.961 97.4778H253.601L268.227 66.8768C269.836 63.4688 272.274 61.7648 275.54 61.7648H280.084C281.693 61.7648 282.971 62.1908 283.918 63.0428C284.912 63.8948 285.811 65.1728 286.616 66.8768L301.242 97.4778H289.882L287.042 91.5138H267.801ZM282.995 82.9938L277.457 72.6988L271.99 82.9938H282.995ZM345.419 104.933V97.4778H310.203C309.541 97.4778 308.854 97.3121 308.144 96.9808C307.482 96.6494 306.866 96.2234 306.298 95.7028C305.778 95.1348 305.352 94.5194 305.02 93.8568C304.689 93.1468 304.523 92.4368 304.523 91.7268V61.7648H314.747V87.8928H338.39V61.7648H348.614V87.9638H354.152V104.933H345.419ZM395.575 61.8358C395.622 61.7884 395.764 61.7648 396.001 61.7648H397.918C398.722 61.7648 399.48 61.9068 400.19 62.1908C400.9 62.4274 401.515 62.7588 402.036 63.1848C402.556 63.6108 402.959 64.1078 403.243 64.6758C403.574 65.1964 403.74 65.7171 403.74 66.2378V97.4778H393.516V75.1128C389.54 78.9468 386.084 82.2601 383.15 85.0528C380.262 87.7981 377.777 90.0701 375.695 91.8688C373.659 93.6674 371.979 95.0164 370.654 95.9158C369.376 96.8151 368.358 97.3121 367.601 97.4068C367.553 97.4541 367.435 97.4778 367.246 97.4778H365.258C364.5 97.4778 363.767 97.3594 363.057 97.1228C362.347 96.8388 361.731 96.4838 361.211 96.0578C360.69 95.6318 360.264 95.1584 359.933 94.6378C359.649 94.1171 359.507 93.5728 359.507 93.0048V61.7648H369.731V84.0588C373.849 80.1774 377.351 76.8641 380.239 74.1188C383.173 71.3261 385.635 69.0541 387.623 67.3028C389.611 65.5041 391.22 64.1788 392.451 63.3268C393.729 62.4274 394.77 61.9304 395.575 61.8358ZM418.403 97.4068H406.546L416.273 83.9878H413.362C412.699 83.9878 412.013 83.8221 411.303 83.4908C410.64 83.1594 410.025 82.7334 409.457 82.2128C408.936 81.6448 408.51 81.0294 408.179 80.3668C407.848 79.6568 407.682 78.9468 407.682 78.2368V67.5158C407.682 66.8058 407.848 66.1194 408.179 65.4568C408.51 64.7468 408.936 64.1314 409.457 63.6108C410.025 63.0428 410.64 62.5931 411.303 62.2618C412.013 61.9304 412.699 61.7648 413.362 61.7648H449.146V71.3498H417.906V75.2548H449.146V97.4778H438.922V83.9878H428.485L418.403 97.4068Z" fill="white"/>
<path d="M137.723 404.909C137.625 404.663 137.649 404.465 137.797 404.317C137.945 404.12 138.143 404.021 138.389 404.021H145.493C145.839 404.021 146.061 404.169 146.159 404.465L150.377 420.449L154.521 404.465C154.62 404.169 154.842 404.021 155.187 404.021H162.365C162.612 404.021 162.785 404.12 162.883 404.317C163.031 404.465 163.056 404.663 162.957 404.909L154.669 429.921V455.155C154.669 455.599 154.423 455.821 153.929 455.821H146.751C146.258 455.821 146.011 455.599 146.011 455.155V429.921L137.723 404.909ZM193.973 404.687L191.975 412.161C191.876 412.507 191.654 412.679 191.309 412.679H185.315V455.155C185.315 455.599 185.093 455.821 184.649 455.821H177.397C176.953 455.821 176.731 455.599 176.731 455.155V412.679H168.739C168.295 412.679 168.073 412.433 168.073 411.939V404.687C168.073 404.243 168.295 404.021 168.739 404.021H193.307C193.751 404.021 193.973 404.243 193.973 404.687ZM198.065 404.909C197.966 404.663 197.991 404.465 198.139 404.317C198.287 404.12 198.484 404.021 198.731 404.021H205.835C206.18 404.021 206.402 404.169 206.501 404.465L210.719 420.449L214.863 404.465C214.962 404.169 215.184 404.021 215.529 404.021H222.707C222.954 404.021 223.126 404.12 223.225 404.317C223.373 404.465 223.398 404.663 223.299 404.909L215.011 429.921V455.155C215.011 455.599 214.764 455.821 214.271 455.821H207.093C206.6 455.821 206.353 455.599 206.353 455.155V429.921L198.065 404.909ZM254.537 454.933C254.586 455.18 254.537 455.402 254.389 455.599C254.29 455.747 254.118 455.821 253.871 455.821H246.619C246.372 455.821 246.15 455.649 245.953 455.303L239.663 434.213H237.517V455.155C237.517 455.599 237.27 455.821 236.777 455.821H229.525C229.081 455.821 228.859 455.599 228.859 455.155V404.687C228.859 404.243 229.081 404.021 229.525 404.021H236.777C237.27 404.021 237.517 404.243 237.517 404.687V425.629H239.663L245.953 404.539C246.15 404.194 246.372 404.021 246.619 404.021H253.871C254.118 404.021 254.29 404.12 254.389 404.317C254.537 404.465 254.586 404.663 254.537 404.909L246.989 429.921L254.537 454.933ZM282.571 404.687L280.573 412.161C280.474 412.507 280.252 412.679 279.907 412.679H273.913V455.155C273.913 455.599 273.691 455.821 273.247 455.821H265.995C265.551 455.821 265.329 455.599 265.329 455.155V412.679H257.337C256.893 412.679 256.671 412.433 256.671 411.939V404.687C256.671 404.243 256.893 404.021 257.337 404.021H281.905C282.349 404.021 282.571 404.243 282.571 404.687ZM286.663 404.909C286.564 404.663 286.589 404.465 286.737 404.317C286.885 404.12 287.082 404.021 287.329 404.021H294.433C294.778 404.021 295 404.169 295.099 404.465L299.317 420.449L303.461 404.465C303.559 404.169 303.781 404.021 304.127 404.021H311.305C311.551 404.021 311.724 404.12 311.823 404.317C311.971 404.465 311.995 404.663 311.897 404.909L303.609 429.921V455.155C303.609 455.599 303.362 455.821 302.869 455.821H295.691C295.197 455.821 294.951 455.599 294.951 455.155V429.921L286.663 404.909ZM317.086 404.909C316.988 404.663 317.012 404.465 317.16 404.317C317.308 404.12 317.506 404.021 317.752 404.021H324.856C325.202 404.021 325.424 404.169 325.522 404.465L329.74 420.449L333.884 404.465C333.983 404.169 334.205 404.021 334.55 404.021H341.728C341.975 404.021 342.148 404.12 342.246 404.317C342.394 404.465 342.419 404.663 342.32 404.909L334.032 429.921V455.155C334.032 455.599 333.786 455.821 333.292 455.821H326.114C325.621 455.821 325.374 455.599 325.374 455.155V429.921L317.086 404.909Z" fill="white"/>
<path d="M306.148 239.042C305.473 230.354 310.302 212.249 335.025 209.33L306.148 239.042Z" fill="white"/>
<path d="M182.535 228.617V239.042L151.632 234.351L182.535 228.617Z" fill="white"/>
<defs>
<filter id="filter0_i_262_22" x="-7.9" y="-7.65879" width="508.9" height="498.738" filterUnits="userSpaceOnUse" color-interpolation-filters="sRGB">
<feFlood flood-opacity="0" result="BackgroundImageFix"/>
<feBlend mode="normal" in="SourceGraphic" in2="BackgroundImageFix" result="shape"/>
<feColorMatrix in="SourceAlpha" type="matrix" values="0 0 0 0 0 0 0 0 0 0 0 0 0 0 0 0 0 0 127 0" result="hardAlpha"/>
<feOffset dx="-9" dy="-9"/>
<feGaussianBlur stdDeviation="3.95"/>
<feComposite in2="hardAlpha" operator="arithmetic" k2="-1" k3="1"/>
<feColorMatrix type="matrix" values="0 0 0 0 1 0 0 0 0 1 0 0 0 0 1 0 0 0 0.26 0"/>
<feBlend mode="normal" in2="shape" result="effect1_innerShadow_262_22"/>
</filter>
</defs>
</svg>
